<svg version="1.0" preserveAspectRatio="xMidYMid meet" viewBox="604.1844769403825 288.359997508 234.87064116985377 234.89999797" zoomAndPan="magnify" xmlns:xlink="http://www.w3.org/1999/xlink" xmlns="http://www.w3.org/2000/svg" style="max-height: 500px" width="234.87064116985377" height="234.89999797"><defs><clipPath id="add1aa0320"><path clip-rule="nonzero" d="M 604.402344 289.800781 L 834.652344 289.800781 L 834.652344 520.050781 L 604.402344 520.050781 Z M 604.402344 289.800781"/></clipPath></defs><g clip-path="url(#add1aa0320)"><path fill-rule="evenodd" fill-opacity="1" d="M 719.636719 289.761719 C 783.261719 289.761719 834.832031 341.339844 834.832031 404.957031 C 834.832031 453.511719 804.789062 495.046875 762.273438 512 L 760.589844 475.703125 L 760.589844 475.632812 C 760.683594 468.449219 763.714844 462.796875 770.441406 459.953125 L 771.304688 459.605469 L 771.351562 459.589844 L 771.40625 459.566406 L 771.492188 459.535156 C 776.441406 457.53125 780.476562 454.828125 783.222656 450.15625 C 786.65625 444.332031 787.316406 436.574219 787.316406 429.96875 C 787.316406 417.273438 783.578125 402.289062 777.128906 391.3125 C 772.546875 383.515625 765.320312 375.625 755.5625 375.625 C 745.804688 375.625 738.578125 383.515625 733.996094 391.3125 C 727.546875 402.289062 723.808594 417.273438 723.808594 429.96875 C 723.808594 436.582031 724.472656 444.339844 727.902344 450.15625 C 730.679688 454.859375 734.761719 457.566406 739.734375 459.574219 C 739.875 459.628906 740.011719 459.6875 740.152344 459.742188 L 740.191406 459.742188 L 740.621094 459.929688 C 747.371094 462.765625 750.441406 468.359375 750.535156 475.632812 L 750.535156 475.703125 L 748.644531 516.472656 C 739.371094 518.878906 729.65625 520.160156 719.636719 520.160156 C 709.261719 520.160156 699.210938 518.777344 689.648438 516.210938 L 687.878906 478.039062 L 687.878906 477.953125 C 687.972656 470.59375 691.113281 464.796875 698 461.878906 L 698.878906 461.53125 L 698.910156 461.523438 L 698.941406 461.507812 L 699.042969 461.472656 C 703.898438 459.503906 707.863281 456.859375 710.566406 452.269531 C 713.949219 446.523438 714.597656 438.816406 714.597656 432.300781 C 714.597656 431.667969 714.574219 431.035156 714.535156 430.402344 C 714.511719 430.039062 714.484375 429.675781 714.4375 429.324219 L 714.375 428.789062 L 714.476562 428.429688 L 710.285156 379.703125 L 705.90625 379.710938 L 705.527344 431.203125 L 698.230469 431.929688 L 693.894531 373.726562 L 689.144531 374.011719 L 688.203125 432.648438 L 685.621094 432.753906 C 685.082031 432.777344 684.539062 432.785156 684.007812 432.785156 C 683.46875 432.785156 682.921875 432.777344 682.378906 432.753906 L 679.8125 432.648438 L 678.492188 374.011719 L 673.742188 373.734375 L 669.785156 431.9375 L 662.480469 431.210938 L 662.109375 379.710938 L 657.707031 379.710938 L 652.046875 428.449219 L 652.136719 428.796875 L 652.074219 429.316406 C 652.039062 429.675781 652.007812 430.039062 651.984375 430.402344 C 651.945312 431.035156 651.921875 431.667969 651.921875 432.300781 C 651.921875 438.816406 652.570312 446.523438 655.957031 452.269531 C 658.679688 456.898438 662.6875 459.542969 667.578125 461.507812 C 667.695312 461.554688 667.8125 461.601562 667.917969 461.648438 L 667.957031 461.648438 L 668.464844 461.863281 C 675.371094 464.773438 678.539062 470.511719 678.640625 477.953125 L 678.640625 478.039062 L 677.066406 512.054688 C 634.496094 495.128906 604.410156 453.566406 604.410156 404.964844 C 604.441406 341.332031 656.007812 289.761719 719.636719 289.761719" fill="#ffdb70"/></g></svg>