<svg version="1.0" preserveAspectRatio="xMidYMid meet" viewBox="608.376512935883 329.486937152582 226.77165354330708 152.279998684" zoomAndPan="magnify" xmlns:xlink="http://www.w3.org/1999/xlink" xmlns="http://www.w3.org/2000/svg" style="max-height: 500px" width="226.77165354330708" height="152.279998684"><defs><clipPath id="0a3757a0cb"><path clip-rule="nonzero" d="M 609 330.015625 L 831 330.015625 L 831 480 L 609 480 Z M 609 330.015625"/></clipPath></defs><g clip-path="url(#0a3757a0cb)"><path fill-rule="nonzero" fill-opacity="1" d="M 824.003906 399.550781 C 814.355469 362.746094 803.234375 338.535156 777.617188 331.578125 C 773.707031 330.519531 770.027344 330.003906 766.363281 330.003906 C 758.628906 330.003906 752.414062 332.332031 746.382812 334.585938 C 740.839844 336.660156 734.644531 338.933594 726.078125 339.703125 L 719.664062 339.890625 C 719.664062 339.925781 700.300781 337.089844 693.558594 334.5625 C 687.5625 332.3125 681.355469 329.988281 673.660156 329.988281 C 669.984375 329.988281 666.296875 330.507812 662.390625 331.570312 C 636.753906 338.53125 625.636719 362.738281 616.007812 399.546875 C 604.839844 442.179688 607.929688 470.757812 624.472656 477.960938 C 627.164062 479.140625 630.003906 479.738281 632.898438 479.738281 C 647.609375 479.738281 661.136719 464.273438 671.019531 452.96875 L 673.707031 449.855469 C 681.765625 440.429688 698.640625 435.027344 720.003906 435.027344 C 743.230469 435.027344 757.511719 439.601562 766.289062 449.867188 L 768.980469 452.992188 C 778.851562 464.28125 792.371094 479.730469 807.09375 479.730469 C 810.003906 479.730469 812.832031 479.136719 815.507812 477.960938 C 832.054688 470.757812 835.144531 442.183594 824.003906 399.550781 Z M 684.847656 402.429688 L 673.800781 402.429688 L 673.800781 413.128906 C 673.800781 417.050781 670.351562 420.359375 666.265625 420.359375 C 662.171875 420.359375 658.71875 417.050781 658.71875 413.128906 L 658.71875 402.429688 L 648.34375 402.429688 C 644.429688 402.429688 641.117188 398.972656 641.117188 394.886719 C 641.117188 390.792969 644.429688 387.339844 648.34375 387.339844 L 658.71875 387.339844 L 658.71875 376.632812 C 658.71875 372.714844 662.175781 369.402344 666.265625 369.402344 C 670.351562 369.402344 673.800781 372.714844 673.800781 376.632812 L 673.800781 387.339844 L 684.847656 387.339844 C 688.757812 387.339844 692.074219 390.792969 692.074219 394.886719 C 692.078125 398.976562 688.761719 402.429688 684.847656 402.429688 Z M 763.28125 415.554688 C 757.164062 415.554688 752.191406 410.585938 752.191406 404.472656 C 752.191406 398.359375 757.171875 393.390625 763.28125 393.390625 C 769.386719 393.390625 774.351562 398.363281 774.351562 404.472656 C 774.351562 410.585938 769.382812 415.554688 763.28125 415.554688 Z M 783.957031 394.878906 C 777.84375 394.878906 772.878906 389.90625 772.878906 383.792969 C 772.878906 377.6875 777.851562 372.714844 783.957031 372.714844 C 790.0625 372.714844 795.039062 377.6875 795.042969 383.792969 C 795.042969 389.90625 790.0625 394.878906 783.957031 394.878906 Z M 783.957031 394.878906" fill="#ffdb70"/></g></svg>