<svg version="1.0" preserveAspectRatio="xMidYMid meet" viewBox="604.1844769403825 288.359997508 233.25084364454443 238.13999794199998" zoomAndPan="magnify" xmlns:xlink="http://www.w3.org/1999/xlink" xmlns="http://www.w3.org/2000/svg" style="max-height: 500px" width="233.25084364454443" height="238.13999794199998"><defs><clipPath id="7df81de788"><path clip-rule="nonzero" d="M 608.152344 290 L 831.652344 290 L 831.652344 520.050781 L 608.152344 520.050781 Z M 608.152344 290"/></clipPath></defs><g clip-path="url(#7df81de788)"><path fill-rule="nonzero" fill-opacity="1" d="M 608.425781 383.371094 L 608.425781 517.75 C 608.425781 518.074219 608.488281 518.386719 608.609375 518.683594 C 608.734375 518.984375 608.910156 519.246094 609.140625 519.476562 C 609.367188 519.703125 609.632812 519.882812 609.929688 520.003906 C 610.230469 520.128906 610.539062 520.191406 610.863281 520.191406 L 819.46875 520.191406 C 819.792969 520.191406 820.105469 520.128906 820.402344 520.003906 C 820.703125 519.882812 820.964844 519.703125 821.195312 519.476562 C 821.425781 519.246094 821.601562 518.984375 821.722656 518.683594 C 821.847656 518.386719 821.910156 518.074219 821.910156 517.75 L 821.910156 383.371094 C 821.90625 382.929688 821.789062 382.519531 821.566406 382.140625 L 821.703125 382.023438 L 821.816406 381.933594 C 821.894531 381.867188 821.964844 381.796875 822.023438 381.714844 L 822.128906 381.597656 L 822.300781 381.335938 C 822.328125 381.300781 822.347656 381.261719 822.359375 381.21875 C 822.429688 381.085938 822.488281 380.949219 822.53125 380.804688 L 831.164062 350.792969 C 831.25 350.480469 831.277344 350.167969 831.242188 349.84375 C 831.203125 349.523438 831.109375 349.222656 830.953125 348.941406 C 830.796875 348.65625 830.589844 348.414062 830.339844 348.214844 C 830.085938 348.011719 829.804688 347.867188 829.492188 347.777344 L 812.898438 342.96875 L 794.152344 337.582031 L 777.695312 332.851562 L 753.863281 325.945312 L 739.859375 321.917969 L 721.503906 316.730469 L 711.894531 313.957031 L 685.851562 306.476562 L 683.386719 305.761719 L 649.265625 295.957031 L 631.175781 290.742188 L 629 290.121094 C 628.691406 290.035156 628.375 290.007812 628.054688 290.042969 C 627.734375 290.082031 627.429688 290.175781 627.148438 290.332031 C 626.867188 290.488281 626.625 290.695312 626.421875 290.945312 C 626.222656 291.199219 626.074219 291.480469 625.984375 291.789062 L 617.367188 321.804688 C 617.1875 322.460938 617.277344 323.078125 617.632812 323.65625 C 617.957031 324.238281 618.441406 324.621094 619.082031 324.808594 L 632.902344 328.8125 L 651.003906 334.015625 L 669.496094 339.332031 L 671.246094 339.835938 L 746.257812 361.378906 L 759.675781 365.246094 L 777.789062 370.449219 L 783.65625 372.140625 L 814.152344 380.945312 L 610.863281 380.945312 C 610.542969 380.945312 610.230469 381.003906 609.933594 381.128906 C 609.636719 381.25 609.371094 381.425781 609.144531 381.652344 C 608.914062 381.882812 608.738281 382.144531 608.613281 382.441406 C 608.488281 382.738281 608.425781 383.050781 608.425781 383.371094 Z M 645.792969 412.140625 L 635.515625 385.800781 L 649.519531 385.800781 L 659.796875 412.164062 Z M 683.847656 412.140625 L 673.570312 385.800781 L 686.679688 385.800781 L 696.957031 412.164062 Z M 720.949219 412.140625 L 710.671875 385.800781 L 724.539062 385.800781 L 734.816406 412.164062 Z M 758.867188 412.140625 L 748.59375 385.800781 L 762.207031 385.800781 L 772.484375 412.164062 Z M 796.546875 412.140625 L 786.269531 385.777344 L 800.539062 385.777344 L 810.816406 412.140625 Z M 651.351562 301.617188 L 664.8125 305.496094 L 667.402344 333.65625 L 653.9375 329.789062 Z M 687.933594 312.136719 L 700.488281 315.738281 L 703.078125 343.910156 L 690.523438 340.308594 Z M 723.609375 322.390625 L 736.933594 326.222656 L 739.523438 354.394531 L 726.175781 350.5625 Z M 760.042969 332.875 L 773.140625 336.636719 L 775.707031 364.832031 L 762.632812 361.046875 Z M 796.257812 343.230469 L 809.976562 347.179688 L 812.566406 375.351562 L 798.847656 371.402344 Z M 621.738281 412.164062 L 613.292969 412.164062 L 613.292969 390.519531 Z M 628.644531 300.019531 L 630.773438 323.140625 L 622.71875 320.835938 Z M 613.292969 515.324219 L 613.292969 417.03125 L 816.984375 417.03125 L 816.984375 515.324219 Z M 613.292969 515.324219" fill="#ffdb70"/></g></svg>