<svg version="1.0" preserveAspectRatio="xMidYMid meet" viewBox="519.955005624297 106.91999907600001 403.32958380202473 591.29999489" zoomAndPan="magnify" xmlns:xlink="http://www.w3.org/1999/xlink" xmlns="http://www.w3.org/2000/svg" style="max-height: 500px" width="403.32958380202473" height="591.29999489"><path fill-rule="nonzero" fill-opacity="1" d="M 843.082031 201.332031 C 817.882812 194.316406 803.078125 168.097656 810.101562 142.894531 C 813.621094 130.269531 806.238281 117.191406 793.613281 113.675781 C 780.988281 110.160156 767.910156 117.542969 764.394531 130.167969 L 688.890625 401.316406 C 677.550781 389.664062 663.105469 380.742188 646.332031 376.078125 C 595.75 361.992188 543.140625 391.679688 529.054688 442.261719 C 514.96875 492.847656 544.667969 545.445312 595.242188 559.53125 C 645.824219 573.617188 698.425781 543.929688 712.511719 493.347656 L 788.058594 222.015625 C 799.34375 233.566406 813.695312 242.410156 830.34375 247.039062 C 855.546875 254.054688 870.351562 280.273438 863.324219 305.476562 C 859.808594 318.101562 867.191406 331.179688 879.816406 334.695312 C 892.441406 338.210938 905.519531 330.828125 909.035156 318.207031 C 923.09375 267.800781 893.496094 215.371094 843.082031 201.332031 Z M 843.082031 201.332031" fill="#ffdb70"/><path fill-rule="nonzero" fill-opacity="1" d="M 850.492188 421.484375 C 834.769531 425.472656 818.730469 415.921875 814.742188 400.195312 C 812.742188 392.320312 804.738281 387.550781 796.867188 389.550781 C 788.992188 391.546875 784.222656 399.554688 786.222656 407.425781 L 829.128906 576.605469 C 819.4375 573.824219 808.914062 573.488281 798.449219 576.136719 C 766.894531 584.140625 747.726562 616.328125 755.730469 647.886719 C 763.734375 679.441406 795.921875 698.601562 827.480469 690.597656 C 859.035156 682.589844 878.203125 650.402344 870.199219 618.847656 L 827.261719 449.550781 C 836.898438 452.292969 847.34375 452.625 857.726562 449.996094 C 873.453125 446.007812 889.488281 455.558594 893.476562 471.285156 C 895.476562 479.15625 903.480469 483.925781 911.355469 481.929688 C 919.226562 479.929688 923.996094 471.925781 922 464.050781 C 914.023438 432.597656 881.945312 413.507812 850.492188 421.484375 Z M 850.492188 421.484375" fill="#ffdb70"/></svg>