<svg version="1.0" preserveAspectRatio="xMidYMid meet" viewBox="487.5590551181102 152.279998684 461.6422947131608 520.019995506" zoomAndPan="magnify" xmlns:xlink="http://www.w3.org/1999/xlink" xmlns="http://www.w3.org/2000/svg" style="max-height: 500px" width="461.6422947131608" height="520.019995506"><defs><clipPath id="931726ae70"><path clip-rule="nonzero" d="M 741 453 L 911 453 L 911 667.984375 L 741 667.984375 Z M 741 453"/></clipPath><clipPath id="ccbc4433c4"><path clip-rule="nonzero" d="M 526 453 L 696 453 L 696 667.984375 L 526 667.984375 Z M 526 453"/></clipPath></defs><path fill-rule="nonzero" fill-opacity="1" d="M 602.292969 496.9375 C 599.339844 487.441406 594.972656 473.074219 583.050781 472.742188 C 582.566406 471.113281 582.03125 469.496094 581.421875 467.90625 C 579.277344 462.292969 575.945312 456.464844 570.191406 453.941406 C 564.515625 451.457031 557.769531 452.53125 554 457.648438 C 551.953125 460.425781 556.601562 463.101562 558.628906 460.351562 C 560.328125 458.046875 563.636719 457.628906 566.25 458.234375 C 569.429688 458.976562 571.859375 461.304688 573.589844 463.988281 C 575.945312 467.648438 577.429688 471.882812 578.53125 476.207031 C 578.558594 476.390625 578.609375 476.570312 578.675781 476.738281 C 579.351562 479.488281 579.886719 482.265625 580.386719 484.945312 C 583.199219 500.042969 584.066406 515.671875 591.214844 529.570312 C 592.792969 532.640625 597.417969 529.929688 595.84375 526.863281 C 589.546875 514.621094 588.441406 500.644531 586.214844 487.277344 C 585.722656 484.328125 585.167969 481.375 584.507812 478.445312 C 588.214844 479.464844 590.988281 482.671875 592.777344 486.199219 C 595.347656 491.261719 596.753906 497.042969 598.378906 502.457031 C 601.910156 514.210938 604.925781 526.117188 607.449219 538.128906 C 608.160156 541.503906 613.328125 540.074219 612.617188 536.703125 C 609.796875 523.292969 606.367188 510.019531 602.292969 496.9375 Z M 602.292969 496.9375" fill="#ffdb70"/><path fill-rule="nonzero" fill-opacity="1" d="M 883.136719 457.644531 C 879.835938 453.164062 874.191406 451.699219 868.902344 453.210938 C 862.957031 454.914062 859.011719 460.195312 856.648438 465.632812 C 855.636719 467.957031 854.789062 470.332031 854.0625 472.742188 C 842.15625 473.09375 837.796875 487.449219 834.84375 496.9375 C 830.773438 510.015625 827.339844 523.292969 824.523438 536.699219 C 823.816406 540.066406 828.980469 541.503906 829.691406 538.125 C 832.214844 526.113281 835.230469 514.210938 838.761719 502.453125 C 840.355469 497.152344 841.738281 491.503906 844.195312 486.523438 C 845.988281 482.894531 848.777344 479.527344 852.566406 478.460938 C 850.578125 487.1875 849.699219 496.234375 848.105469 504.972656 C 846.726562 512.519531 844.824219 520.007812 841.296875 526.863281 C 839.722656 529.925781 844.347656 532.640625 845.925781 529.566406 C 853.074219 515.667969 853.9375 500.039062 856.753906 484.945312 C 857.253906 482.261719 857.785156 479.484375 858.464844 476.730469 C 858.527344 476.5625 858.578125 476.386719 858.605469 476.203125 C 859.707031 471.882812 861.191406 467.644531 863.550781 463.984375 C 865.277344 461.300781 867.710938 458.972656 870.890625 458.230469 C 873.503906 457.625 876.808594 458.046875 878.507812 460.347656 C 880.535156 463.097656 885.1875 460.429688 883.136719 457.644531 Z M 883.136719 457.644531" fill="#ffdb70"/><path fill-rule="nonzero" fill-opacity="1" d="M 661.746094 174.140625 C 680.503906 152.257812 708.957031 140.757812 736.675781 141.398438 C 764.394531 142.035156 791.148438 154.1875 816.039062 172.273438 C 796.351562 193.21875 769.222656 206.191406 741.507812 207.910156 C 713.796875 209.628906 685.769531 200.078125 661.746094 174.140625 Z M 546.589844 307.234375 C 553.515625 280.34375 549.5625 250.535156 535.726562 225.335938 C 510.832031 243.421875 491.011719 265.109375 481.835938 291.273438 C 472.660156 317.4375 474.804688 348.058594 489.820312 372.65625 C 521.914062 357.824219 539.660156 334.121094 546.589844 307.234375 Z M 896.207031 362.597656 C 906.402344 388.425781 927.125 410.21875 953.128906 422.472656 C 962.640625 393.207031 965.925781 364.011719 957.96875 337.449219 C 950.015625 310.890625 930.28125 287.378906 903.675781 276.304688 C 886.429688 307.167969 886.007812 336.773438 896.207031 362.597656 Z M 896.207031 362.597656" fill="#ffffff"/><path fill-rule="nonzero" fill-opacity="1" d="M 768.59375 165.429688 C 771.941406 166.273438 770.515625 171.441406 767.167969 170.597656 C 756.441406 167.890625 745.480469 166.339844 734.421875 165.96875 C 695.15625 164.648438 655.433594 177.808594 625.316406 203.164062 C 622.695312 205.371094 618.886719 201.597656 621.527344 199.371094 C 630.34375 191.953125 639.90625 185.457031 650.097656 180.074219 C 686.128906 161.039062 729.019531 155.4375 768.59375 165.429688 Z M 514.480469 268.46875 C 492.78125 302.976562 484.964844 345.398438 491.859375 385.480469 C 493.789062 396.691406 496.917969 407.664062 501.195312 418.199219 C 502.476562 421.355469 507.660156 419.976562 506.363281 416.777344 C 491.476562 380.09375 491.042969 338.304688 504.464844 301.117188 C 508.246094 290.632812 513.175781 280.605469 519.109375 271.175781 C 520.949219 268.246094 516.3125 265.554688 514.480469 268.46875 Z M 944.980469 375.351562 C 942.261719 334.703125 923.832031 295.65625 894.660156 267.277344 C 886.367188 259.210938 877.203125 252.039062 867.382812 245.925781 C 864.449219 244.097656 861.753906 248.730469 864.679688 250.554688 C 898.074219 271.339844 922.90625 304.902344 933.824219 342.625 C 936.914062 353.300781 938.878906 364.265625 939.617188 375.351562 C 939.847656 378.777344 945.210938 378.800781 944.980469 375.351562 Z M 944.980469 375.351562" fill="#ffdb70"/><path fill-rule="nonzero" fill-opacity="1" d="M 803.53125 324.507812 C 815.492188 318.910156 826.605469 311.667969 836.257812 302.417969 C 822.636719 284.472656 805.449219 269.164062 785.253906 258.183594 C 779.039062 254.804688 772.742188 251.964844 766.40625 249.625 C 779.003906 267.75 789.519531 287.269531 797.609375 307.832031 C 799.773438 313.324219 801.742188 318.890625 803.53125 324.507812 Z M 803.53125 324.507812" fill="#ffdb70"/><path fill-rule="nonzero" fill-opacity="1" d="M 798.585938 326.695312 C 789.492188 298.082031 775.574219 271.042969 757.835938 246.761719 C 745.910156 243.226562 733.886719 241.433594 721.980469 241.242188 C 721.890625 264.261719 721.800781 287.277344 721.710938 310.292969 C 721.671875 320.679688 721.632812 331.066406 721.59375 341.453125 C 729.617188 341.179688 737.628906 340.660156 745.59375 339.804688 C 763.621094 337.871094 781.816406 333.789062 798.585938 326.695312 Z M 798.585938 326.695312" fill="#ffdb70"/><path fill-rule="nonzero" fill-opacity="1" d="M 753.09375 464.535156 C 768.84375 466.171875 784.300781 469.378906 799.417969 473.785156 C 805.4375 454.726562 809.058594 434.964844 810.164062 415.039062 C 808.40625 415.023438 806.644531 414.996094 804.886719 414.980469 C 777.027344 414.753906 749.167969 414.664062 721.308594 414.636719 C 721.285156 420.703125 721.261719 426.773438 721.238281 432.84375 C 721.199219 443.0625 721.160156 453.28125 721.121094 463.5 C 731.773438 463.097656 742.460938 463.429688 753.09375 464.535156 Z M 753.09375 464.535156" fill="#ffdb70"/><path fill-rule="nonzero" fill-opacity="1" d="M 810.371094 409.671875 C 810.855469 395.0625 810.03125 380.394531 807.808594 365.890625 C 806.042969 354.367188 803.472656 343.003906 800.179688 331.863281 C 798.71875 332.480469 797.261719 333.109375 795.78125 333.683594 C 777.855469 340.621094 758.78125 344.097656 739.6875 345.734375 C 733.671875 346.25 727.625 346.597656 721.570312 346.816406 C 721.492188 367.636719 721.410156 388.457031 721.332031 409.277344 C 731.785156 409.289062 742.234375 409.273438 752.6875 409.3125 C 771.917969 409.382812 791.144531 409.507812 810.371094 409.671875 Z M 810.371094 409.671875" fill="#ffdb70"/><path fill-rule="nonzero" fill-opacity="1" d="M 767.640625 547.375 C 771.15625 546.25 774.621094 544.960938 778.058594 543.605469 C 780.71875 539.835938 782.988281 535.78125 784.792969 531.53125 C 787.1875 525.898438 788.777344 519.9375 791.386719 514.398438 C 793.992188 508.859375 797.839844 503.601562 803.351562 500.945312 C 808.867188 498.289062 816.265625 498.929688 820.183594 503.632812 C 823.171875 507.21875 823.582031 512.261719 822.867188 516.921875 C 830.5 510.421875 837.195312 503.371094 842.972656 495.871094 C 829.945312 489.886719 816.59375 484.625 802.894531 480.371094 C 794.6875 504.339844 782.75 526.992188 767.640625 547.375 Z M 767.640625 547.375" fill="#ffdb70"/><path fill-rule="nonzero" fill-opacity="1" d="M 681.867188 246.6875 C 674.578125 248.804688 667.441406 251.503906 660.519531 254.777344 C 633.335938 267.613281 609.519531 288.925781 592.5 315.121094 C 606.46875 324.203125 622.011719 330.441406 638.183594 334.480469 C 646.765625 302.703125 661.523438 272.5625 681.867188 246.6875 Z M 681.867188 246.6875" fill="#ffdb70"/><path fill-rule="nonzero" fill-opacity="1" d="M 871.804688 415.714844 C 853.042969 415.457031 834.28125 415.265625 815.519531 415.097656 C 815.085938 423.507812 814.214844 431.910156 812.886719 440.265625 C 811 452.167969 808.175781 463.878906 804.535156 475.324219 C 818.757812 479.746094 832.664062 485.234375 846.210938 491.488281 C 862.253906 468.851562 870.4375 442.574219 871.804688 415.714844 Z M 871.804688 415.714844" fill="#ffdb70"/><path fill-rule="nonzero" fill-opacity="1" d="M 815.703125 409.722656 C 834.464844 409.890625 853.226562 410.097656 871.984375 410.355469 C 872.609375 374.023438 860.933594 337 839.449219 306.773438 C 829.390625 316.289062 817.660156 323.839844 805.105469 329.671875 C 812.804688 355.632812 816.496094 382.691406 815.703125 409.722656 Z M 815.703125 409.722656" fill="#ffdb70"/><path fill-rule="nonzero" fill-opacity="1" d="M 683.601562 346.375 C 669.742188 345.574219 655.746094 343.890625 642.101562 340.863281 C 636.550781 363.265625 634.070312 386.402344 634.855469 409.476562 C 661.894531 409.304688 688.933594 409.257812 715.972656 409.269531 C 716.03125 394.253906 716.085938 379.234375 716.144531 364.214844 C 716.167969 358.46875 716.191406 352.71875 716.210938 346.96875 C 705.328125 347.207031 694.429688 347 683.601562 346.375 Z M 683.601562 346.375" fill="#ffdb70"/><path fill-rule="nonzero" fill-opacity="1" d="M 635.113281 414.851562 C 635.460938 421.097656 636.023438 427.335938 636.851562 433.542969 C 638.898438 448.898438 642.394531 464.109375 647.242188 478.882812 C 647.492188 478.785156 647.734375 478.675781 647.984375 478.578125 C 669.6875 470.152344 692.601562 465.203125 715.761719 463.777344 C 715.824219 447.394531 715.886719 431.011719 715.949219 414.632812 C 705.597656 414.628906 695.246094 414.597656 684.890625 414.621094 C 668.296875 414.652344 651.707031 414.746094 635.113281 414.851562 Z M 635.113281 414.851562" fill="#ffdb70"/><path fill-rule="nonzero" fill-opacity="1" d="M 654.132812 304.433594 C 649.863281 314.613281 646.285156 325.066406 643.410156 335.703125 C 658.699219 339.082031 674.328125 340.703125 689.964844 341.324219 C 698.695312 341.671875 707.46875 341.78125 716.230469 341.605469 C 716.359375 308.160156 716.488281 274.71875 716.617188 241.277344 C 707.820312 241.488281 699.105469 242.5625 690.566406 244.453125 C 675.445312 262.410156 663.203125 282.789062 654.132812 304.433594 Z M 654.132812 304.433594" fill="#ffdb70"/><path fill-rule="nonzero" fill-opacity="1" d="M 792.0625 493.964844 C 794.148438 488.984375 796.054688 483.9375 797.792969 478.835938 C 772.875 471.613281 746.960938 467.921875 721.101562 468.832031 C 720.992188 497.710938 720.878906 526.585938 720.769531 555.460938 C 733.644531 555.054688 746.511719 553.183594 759.023438 549.878906 C 772.488281 532.851562 783.671875 513.992188 792.0625 493.964844 Z M 792.0625 493.964844" fill="#ffdb70"/><path fill-rule="nonzero" fill-opacity="1" d="M 648.988281 484.007812 C 657.761719 508.910156 670.46875 532.425781 686.953125 553.007812 C 686.976562 553.035156 686.988281 553.066406 687.011719 553.09375 C 696.355469 554.742188 705.863281 555.570312 715.40625 555.574219 C 715.496094 532.636719 715.585938 509.699219 715.671875 486.761719 C 715.695312 480.875 715.71875 474.988281 715.742188 469.101562 C 708.335938 469.546875 700.9375 470.351562 693.578125 471.585938 C 678.265625 474.152344 663.34375 478.363281 648.988281 484.007812 Z M 648.988281 484.007812" fill="#ffdb70"/><path fill-rule="nonzero" fill-opacity="1" d="M 644.058594 486.023438 C 630.136719 491.871094 616.792969 499.09375 604.183594 507.5 C 607.441406 511.21875 610.875 514.691406 614.441406 517.964844 C 613.496094 513.03125 613.742188 507.488281 616.953125 503.632812 C 620.871094 498.933594 628.269531 498.289062 633.785156 500.945312 C 639.300781 503.605469 643.144531 508.863281 645.753906 514.398438 C 648.359375 519.9375 649.953125 525.898438 652.34375 531.535156 C 654.550781 536.730469 657.445312 541.636719 660.917969 546.089844 C 666.851562 548.265625 672.921875 550.082031 679.09375 551.5 C 665.386719 533.332031 654.390625 513.277344 646.238281 492.011719 C 645.476562 490.023438 644.769531 488.023438 644.058594 486.023438 Z M 644.058594 486.023438" fill="#ffdb70"/><path fill-rule="nonzero" fill-opacity="1" d="M 629.546875 409.515625 C 628.964844 392.628906 630.054688 375.675781 632.847656 358.957031 C 633.929688 352.46875 635.296875 346.027344 636.878906 339.636719 C 620.179688 335.464844 604.132812 329.105469 589.648438 319.648438 C 573.46875 346.308594 564.285156 377.632812 565.503906 410.121094 C 586.851562 409.855469 608.199219 409.660156 629.546875 409.515625 Z M 629.546875 409.515625" fill="#ffdb70"/><path fill-rule="nonzero" fill-opacity="1" d="M 565.800781 415.476562 C 566.066406 419.167969 566.4375 422.875 566.984375 426.585938 C 571.125 454.730469 583.105469 481.667969 600.683594 503.402344 C 613.796875 494.574219 627.71875 487 642.308594 480.890625 C 635.25 459.527344 631.0625 437.292969 629.820312 414.875 C 608.480469 415.023438 587.140625 415.214844 565.800781 415.476562 Z M 565.800781 415.476562" fill="#ffdb70"/><g clip-path="url(#931726ae70)"><path fill-rule="nonzero" fill-opacity="1" d="M 899.828125 456.035156 C 895.945312 453.710938 891.085938 452.851562 886.769531 454.464844 C 882.566406 456.039062 879.382812 459.382812 877.195312 463.230469 C 871.773438 472.785156 872.171875 484.289062 869.347656 494.652344 C 863.230469 517.074219 841.25 528.269531 821.464844 537.109375 C 822.351562 532.804688 823.25 528.507812 824.148438 524.207031 C 825.582031 517.351562 827.410156 509.734375 823.308594 503.386719 C 818.410156 495.800781 807.808594 495.070312 800.511719 499.4375 C 791.746094 504.679688 788.101562 514.667969 784.867188 523.792969 C 781.328125 533.785156 776.453125 542.683594 768.945312 550.269531 C 765.175781 554.074219 761.113281 557.589844 757.785156 561.8125 C 754.820312 565.582031 752.488281 569.726562 750.722656 574.183594 C 744.410156 590.136719 747.535156 607.574219 757.394531 620.695312 C 754.152344 620.753906 750.910156 620.792969 747.667969 620.859375 C 746.101562 620.894531 745.148438 622.070312 744.988281 623.539062 C 743.488281 637.386719 742.953125 651.324219 741.386719 665.160156 C 741.222656 666.617188 742.746094 667.824219 744.066406 667.84375 C 778.339844 668.3125 812.617188 667.5625 846.890625 667.285156 C 848.445312 667.273438 849.425781 666.058594 849.570312 664.605469 C 850.777344 652.425781 851.984375 640.246094 853.191406 628.066406 C 853.363281 626.347656 853.53125 624.628906 853.703125 622.90625 C 853.832031 621.597656 853.128906 620.796875 852.195312 620.488281 C 851.863281 620.328125 851.472656 620.230469 851.023438 620.226562 C 850.21875 620.222656 849.417969 620.222656 848.613281 620.214844 C 859.371094 608.390625 867.4375 594.199219 874.214844 579.753906 C 879.222656 569.078125 883.675781 558.15625 888.539062 547.414062 C 893.304688 536.886719 898.730469 526.660156 903.136719 515.972656 C 907.496094 505.390625 910.746094 494.132812 910.847656 482.605469 C 910.9375 472.898438 908.871094 461.441406 899.828125 456.035156 Z M 747.003906 662.511719 C 748.265625 650.421875 748.890625 638.273438 750.101562 626.179688 C 782.753906 625.519531 815.417969 625.347656 848.078125 625.574219 C 846.960938 636.863281 845.839844 648.15625 844.722656 659.445312 C 844.640625 660.277344 844.558594 661.113281 844.472656 661.949219 C 811.984375 662.230469 779.496094 662.890625 747.003906 662.511719 Z M 899.53125 510.597656 C 895.589844 520.988281 890.347656 530.816406 885.667969 540.882812 C 880.988281 550.9375 876.773438 561.199219 872.21875 571.3125 C 864.28125 588.945312 855.003906 606.480469 841.257812 620.183594 C 815.546875 620.050781 789.835938 620.167969 764.128906 620.582031 C 754.398438 609.832031 750.332031 594.683594 754.296875 580.375 C 756.875 571.058594 762.394531 564.070312 769.242188 557.46875 C 776.125 550.839844 782.117188 543.671875 786.1875 534.953125 C 790.203125 526.351562 791.835938 516.242188 797.957031 508.75 C 802.453125 503.242188 812.003906 498.679688 817.886719 505.070312 C 822.390625 509.964844 820.097656 517.449219 818.894531 523.207031 C 817.597656 529.40625 816.285156 535.605469 815.046875 541.816406 C 813.992188 547.105469 812.691406 552.414062 813.488281 557.824219 C 813.851562 560.289062 814.542969 562.699219 814.835938 565.171875 C 815.347656 569.464844 814.925781 573.820312 814.214844 578.058594 C 813.652344 581.433594 818.816406 582.882812 819.382812 579.484375 C 820.109375 575.136719 820.652344 570.714844 820.304688 566.304688 C 820.089844 563.589844 819.503906 560.960938 818.984375 558.292969 C 818.039062 553.449219 819.078125 548.992188 820.027344 544.183594 C 820.074219 543.949219 820.125 543.710938 820.171875 543.476562 C 820.265625 543.445312 820.355469 543.425781 820.449219 543.386719 C 838.550781 535.398438 857.695312 526.554688 868.699219 509.230469 C 874.191406 500.582031 875.652344 491.003906 877.332031 481.09375 C 878.597656 473.632812 881 459.953125 890.660156 459.011719 C 895.003906 458.589844 899.152344 461.371094 901.484375 464.855469 C 904.230469 468.964844 905.140625 474.035156 905.410156 478.882812 C 906.011719 489.761719 903.367188 500.492188 899.53125 510.597656 Z M 899.53125 510.597656" fill="#ffdb70"/></g><g clip-path="url(#ccbc4433c4)"><path fill-rule="nonzero" fill-opacity="1" d="M 689.472656 620.859375 C 686.234375 620.792969 682.996094 620.753906 679.761719 620.695312 C 688.183594 609.53125 691.765625 595.195312 688.539062 581.039062 C 686.308594 571.269531 681.082031 562.945312 674.019531 555.945312 C 670.261719 552.222656 666.339844 548.683594 663.0625 544.507812 C 659.949219 540.546875 657.335938 536.148438 655.265625 531.558594 C 651.003906 522.121094 649.160156 511.480469 641.851562 503.683594 C 635.992188 497.429688 626.128906 494.183594 618.328125 498.980469 C 610.746094 503.636719 610.636719 512.808594 612.234375 520.582031 C 613.367188 526.09375 614.535156 531.597656 615.671875 537.109375 C 597.953125 529.21875 579.109375 519.863281 570.339844 501.625 C 565.5 491.558594 566.058594 480.027344 562.644531 469.539062 C 559.90625 461.121094 553.457031 452.371094 543.515625 453.800781 C 533.1875 455.289062 528.027344 465.316406 526.769531 474.707031 C 525.265625 485.945312 527.398438 497.449219 531.023438 508.097656 C 534.75 519.039062 540.058594 529.339844 545.03125 539.75 C 550.121094 550.402344 554.625 561.316406 559.429688 572.097656 C 567.046875 589.1875 575.851562 606.328125 588.480469 620.21875 C 587.691406 620.222656 586.902344 620.222656 586.113281 620.226562 C 585.667969 620.230469 585.28125 620.328125 584.949219 620.488281 C 584.011719 620.792969 583.304688 621.59375 583.433594 622.90625 C 584.640625 635.085938 585.847656 647.265625 587.054688 659.445312 C 587.226562 661.164062 587.394531 662.886719 587.566406 664.605469 C 587.710938 666.058594 588.679688 667.273438 590.246094 667.285156 C 624.519531 667.5625 658.796875 668.3125 693.074219 667.84375 C 694.398438 667.824219 695.917969 666.625 695.753906 665.164062 C 694.183594 651.324219 693.652344 637.386719 692.152344 623.542969 C 691.992188 622.074219 691.050781 620.894531 689.472656 620.859375 Z M 568.273438 578.574219 C 563.570312 568.683594 559.386719 558.558594 554.949219 548.550781 C 550.421875 538.335938 545.257812 528.421875 540.742188 518.203125 C 536.285156 508.121094 532.554688 497.398438 531.792969 486.324219 C 531.191406 477.523438 531.734375 465.105469 540.59375 460.332031 C 550.039062 455.242188 556.058594 465.527344 558.160156 473.261719 C 560.886719 483.28125 560.941406 493.78125 565.269531 503.375 C 574.722656 524.332031 596.859375 534.636719 616.691406 543.386719 C 616.816406 543.445312 616.941406 543.476562 617.066406 543.511719 C 618.070312 547.90625 619.03125 552.457031 618.433594 556.757812 C 618.046875 559.5625 617.261719 562.335938 616.941406 565.175781 C 616.40625 569.957031 616.964844 574.765625 617.757812 579.484375 C 618.324219 582.878906 623.492188 581.441406 622.925781 578.0625 C 622.261719 574.105469 621.871094 570.082031 622.214844 566.074219 C 622.402344 563.863281 622.941406 561.722656 623.359375 559.550781 C 624.265625 554.835938 623.753906 550.460938 622.871094 545.796875 C 621.707031 539.644531 620.40625 533.519531 619.121094 527.394531 C 618.011719 522.078125 615.929688 515.96875 616.8125 510.515625 C 618.257812 501.621094 628.171875 500.152344 634.773438 504.605469 C 642.617188 509.894531 645.144531 520.027344 648.230469 528.363281 C 651.511719 537.234375 656.246094 545.363281 662.710938 552.304688 C 666.035156 555.875 669.757812 559.050781 673.054688 562.652344 C 676.199219 566.09375 678.773438 570.007812 680.675781 574.265625 C 687.703125 590.007812 684.21875 608.171875 673.007812 620.582031 C 647.324219 620.171875 621.640625 620.050781 595.957031 620.183594 C 584.085938 608.363281 575.453125 593.683594 568.273438 578.574219 Z M 592.664062 661.949219 C 591.546875 650.65625 590.425781 639.363281 589.308594 628.066406 C 589.222656 627.238281 589.144531 626.40625 589.058594 625.574219 C 621.722656 625.347656 654.382812 625.519531 687.039062 626.179688 C 688.25 638.277344 688.875 650.421875 690.132812 662.511719 C 657.644531 662.890625 625.152344 662.230469 592.664062 661.949219 Z M 592.664062 661.949219" fill="#ffdb70"/></g></svg>