<svg version="1.0" preserveAspectRatio="xMidYMid meet" viewBox="349.8762654668166 35.639999691999996 740.2474690663668 737.0999936300001" zoomAndPan="magnify" xmlns:xlink="http://www.w3.org/1999/xlink" xmlns="http://www.w3.org/2000/svg" style="max-height: 500px" width="740.2474690663668" height="737.0999936300001"><defs><clipPath id="1ad6375bc3"><path clip-rule="nonzero" d="M 0.0390625 0.160156 L 733 0.160156 L 733 733 L 0.0390625 733 Z M 0.0390625 0.160156"/></clipPath><clipPath id="237d6abd3c"><rect height="740" y="0" width="740" x="0"/></clipPath></defs><g transform="matrix(1, 0, 0, 1, 353, 38)"><g clip-path="url(#237d6abd3c)"><g clip-path="url(#1ad6375bc3)"><path fill-rule="nonzero" fill-opacity="1" d="M 390.304688 0.953125 C 169.5 -13.164062 -13.292969 169.621094 0.824219 390.433594 C 12.488281 572.945312 159.914062 720.359375 342.421875 732.03125 C 563.226562 746.148438 746.019531 563.363281 731.902344 342.550781 C 720.230469 160.042969 572.808594 12.621094 390.304688 0.953125 Z M 532.21875 548.246094 C 546.625 498.753906 555.226562 441.820312 556.378906 380.578125 L 704.132812 380.578125 C 700.894531 459.101562 670.75 530.753906 622.695312 586.628906 C 600.644531 571.183594 569.828125 558.121094 532.21875 548.246094 Z M 110.03125 586.628906 C 61.976562 530.753906 31.828125 459.101562 28.59375 380.578125 L 176.347656 380.578125 C 177.496094 441.820312 186.097656 498.753906 200.507812 548.246094 C 162.886719 558.128906 132.066406 571.183594 110.03125 586.628906 Z M 200.433594 184.980469 C 186.0625 234.421875 177.488281 291.261719 176.339844 352.402344 L 28.59375 352.402344 C 31.8125 274.25 61.6875 202.90625 109.34375 147.144531 C 131.765625 162.339844 162.800781 175.214844 200.433594 184.980469 Z M 352.273438 352.402344 L 204.515625 352.402344 C 205.730469 294.09375 214.402344 239.058594 228.566406 191.453125 C 266.648438 199.132812 308.878906 203.503906 352.273438 204.292969 Z M 352.273438 380.578125 L 352.273438 528.691406 C 308.789062 529.480469 266.5625 533.917969 228.625 541.695312 C 214.421875 494.046875 205.734375 438.953125 204.515625 380.578125 Z M 380.449219 380.578125 L 528.203125 380.578125 C 526.992188 438.953125 518.296875 494.046875 504.105469 541.695312 C 466.140625 533.917969 423.925781 529.480469 380.449219 528.691406 Z M 380.449219 352.402344 L 380.449219 204.289062 C 423.839844 203.503906 466.070312 199.125 504.152344 191.445312 C 518.320312 239.058594 526.992188 294.09375 528.203125 352.402344 Z M 380.449219 176.117188 L 380.449219 29.785156 C 426.722656 38.570312 468.121094 89.957031 495.269531 164.53125 C 459.867188 171.433594 420.707031 175.363281 380.449219 176.117188 Z M 352.273438 29.785156 L 352.273438 176.117188 C 312.011719 175.363281 272.855469 171.433594 237.449219 164.53125 C 264.597656 89.957031 305.996094 38.5625 352.273438 29.785156 Z M 352.273438 556.867188 L 352.273438 703.199219 C 306.027344 694.421875 264.65625 643.097656 237.507812 568.609375 C 272.789062 561.609375 311.9375 557.628906 352.273438 556.867188 Z M 380.449219 703.191406 L 380.449219 556.867188 C 420.777344 557.628906 459.914062 561.609375 495.214844 568.609375 C 468.066406 643.089844 426.695312 694.421875 380.449219 703.191406 Z M 556.378906 352.402344 C 555.230469 291.261719 546.660156 234.421875 532.296875 184.980469 C 569.925781 175.207031 600.964844 162.339844 623.378906 147.144531 C 671.03125 202.898438 700.90625 274.25 704.125 352.402344 Z M 603.902344 126.128906 C 584.175781 138.628906 556.578125 149.652344 523.6875 158.089844 C 506.007812 108.105469 482.007812 67.429688 453.730469 39.867188 C 511.234375 55.265625 562.742188 85.457031 603.902344 126.128906 Z M 209.039062 158.097656 C 176.148438 149.660156 148.550781 138.632812 128.828125 126.136719 C 169.980469 85.457031 221.496094 55.273438 279.003906 39.875 C 250.722656 67.429688 226.714844 108.113281 209.039062 158.097656 Z M 129.539062 607.53125 C 148.839844 594.851562 176.226562 583.671875 209.125 575.128906 C 226.792969 625 250.761719 665.589844 278.996094 693.113281 C 221.816406 677.796875 170.578125 647.851562 129.539062 607.53125 Z M 523.597656 575.128906 C 556.484375 583.671875 583.878906 594.851562 603.183594 607.53125 C 562.140625 647.859375 510.910156 677.804688 453.722656 693.113281 C 481.957031 665.589844 505.921875 625 523.597656 575.128906 Z M 523.597656 575.128906" fill="#ffda6b"/></g></g></g></svg>