<svg version="1.0" preserveAspectRatio="xMidYMid meet" viewBox="383.89201349831274 63.179999454000004 683.5545556805399 683.6399940919999" zoomAndPan="magnify" xmlns:xlink="http://www.w3.org/1999/xlink" xmlns="http://www.w3.org/2000/svg" style="max-height: 500px" width="683.5545556805399" height="683.6399940919999"><defs><clipPath id="c23a5fa55a"><path clip-rule="nonzero" d="M 2 0.28125 L 678 0.28125 L 678 678 L 2 678 Z M 2 0.28125"/></clipPath><clipPath id="7b6240665e"><rect height="682" y="0" width="679" x="0"/></clipPath></defs><g transform="matrix(1, 0, 0, 1, 386, 65)"><g clip-path="url(#7b6240665e)"><g clip-path="url(#c23a5fa55a)"><path fill-rule="nonzero" fill-opacity="1" d="M 539.386719 70.34375 C 524.832031 70.308594 510.632812 72.527344 496.785156 77.003906 C 495.5625 74.558594 494.269531 72.15625 492.902344 69.789062 C 491.539062 67.421875 490.101562 65.097656 488.601562 62.8125 C 487.097656 60.53125 485.527344 58.296875 483.894531 56.105469 C 482.257812 53.917969 480.558594 51.777344 478.796875 49.6875 C 477.035156 47.601562 475.214844 45.5625 473.332031 43.582031 C 471.449219 41.601562 469.511719 39.679688 467.515625 37.8125 C 465.519531 35.945312 463.46875 34.136719 461.367188 32.394531 C 459.265625 30.648438 457.113281 28.964844 454.910156 27.347656 C 452.707031 25.730469 450.460938 24.175781 448.167969 22.691406 C 445.875 21.207031 443.539062 19.789062 441.160156 18.441406 C 438.78125 17.097656 436.367188 15.820312 433.914062 14.617188 C 431.460938 13.410156 428.976562 12.28125 426.453125 11.222656 C 423.933594 10.167969 421.386719 9.183594 418.808594 8.277344 C 416.230469 7.371094 413.628906 6.542969 411 5.789062 C 408.375 5.035156 405.726562 4.359375 403.058594 3.765625 C 400.394531 3.167969 397.710938 2.652344 395.011719 2.214844 C 392.316406 1.777344 389.609375 1.417969 386.890625 1.140625 C 384.171875 0.863281 381.445312 0.667969 378.714844 0.550781 C 375.984375 0.433594 373.253906 0.398438 370.523438 0.445312 C 367.789062 0.488281 365.0625 0.613281 362.335938 0.820312 C 359.613281 1.027344 356.894531 1.316406 354.1875 1.683594 C 351.480469 2.046875 348.785156 2.496094 346.101562 3.023438 C 343.421875 3.546875 340.757812 4.152344 338.113281 4.835938 C 335.464844 5.523438 332.84375 6.28125 330.242188 7.121094 C 327.640625 7.960938 325.070312 8.875 322.523438 9.867188 C 319.976562 10.859375 317.460938 11.925781 314.976562 13.0625 C 312.492188 14.203125 310.046875 15.417969 307.632812 16.703125 C 305.222656 17.984375 302.851562 19.339844 300.519531 20.765625 C 298.1875 22.191406 295.898438 23.683594 293.65625 25.242188 C 291.410156 26.804688 289.214844 28.429688 287.070312 30.121094 C 284.921875 31.808594 282.824219 33.5625 280.78125 35.375 C 278.738281 37.1875 276.75 39.0625 274.816406 40.992188 L 41.539062 274.199219 C 39.96875 275.808594 38.4375 277.457031 36.945312 279.140625 C 35.453125 280.828125 34.003906 282.546875 32.59375 284.304688 C 31.1875 286.058594 29.824219 287.847656 28.503906 289.667969 C 27.183594 291.492188 25.90625 293.34375 24.675781 295.230469 C 23.445312 297.113281 22.261719 299.027344 21.125 300.96875 C 19.988281 302.910156 18.898438 304.878906 17.855469 306.875 C 16.816406 308.871094 15.824219 310.890625 14.882812 312.933594 C 13.9375 314.976562 13.046875 317.039062 12.203125 319.128906 C 11.359375 321.214844 10.570312 323.320312 9.832031 325.445312 C 9.089844 327.570312 8.402344 329.714844 7.769531 331.871094 C 7.132812 334.03125 6.550781 336.203125 6.023438 338.390625 C 5.492188 340.578125 5.015625 342.777344 4.59375 344.988281 C 4.171875 347.199219 3.804688 349.417969 3.488281 351.648438 C 3.175781 353.875 2.914062 356.109375 2.710938 358.351562 C 2.503906 360.59375 2.355469 362.835938 2.257812 365.085938 C 2.164062 367.332031 2.121094 369.582031 2.136719 371.832031 C 2.148438 374.082031 2.21875 376.332031 2.339844 378.578125 C 2.464844 380.828125 2.644531 383.070312 2.875 385.308594 C 3.109375 387.546875 3.394531 389.777344 3.734375 392 C 4.078125 394.226562 4.472656 396.441406 4.921875 398.644531 C 5.371094 400.851562 5.875 403.042969 6.429688 405.222656 C 6.984375 407.40625 7.59375 409.570312 8.257812 411.722656 C 8.917969 413.871094 9.632812 416.007812 10.398438 418.121094 C 11.160156 420.238281 11.980469 422.335938 12.847656 424.410156 C 13.714844 426.488281 14.632812 428.542969 15.597656 430.574219 C 16.566406 432.605469 17.582031 434.613281 18.648438 436.59375 C 19.714844 438.578125 20.828125 440.53125 21.988281 442.460938 C 23.148438 444.386719 24.355469 446.285156 25.609375 448.15625 C 26.863281 450.023438 28.160156 451.863281 29.503906 453.667969 C 30.847656 455.472656 32.230469 457.246094 33.660156 458.984375 C 35.089844 460.722656 36.5625 462.425781 38.074219 464.09375 C 39.585938 465.757812 41.136719 467.386719 42.726562 468.980469 C 44.320312 470.570312 45.949219 472.121094 47.617188 473.632812 C 49.28125 475.144531 50.984375 476.617188 52.722656 478.042969 C 54.464844 479.472656 56.234375 480.859375 58.042969 482.203125 C 59.847656 483.542969 61.6875 484.839844 63.554688 486.09375 C 65.425781 487.347656 67.324219 488.554688 69.25 489.714844 C 71.179688 490.875 73.136719 491.988281 75.117188 493.054688 C 77.101562 494.117188 79.105469 495.132812 81.140625 496.101562 C 83.171875 497.070312 85.226562 497.984375 87.300781 498.851562 C 89.378906 499.71875 91.472656 500.535156 93.589844 501.300781 C 95.707031 502.066406 97.839844 502.78125 99.992188 503.441406 C 102.144531 504.101562 104.308594 504.710938 106.488281 505.265625 C 108.671875 505.820312 110.863281 506.324219 113.070312 506.773438 C 115.273438 507.222656 117.488281 507.617188 119.714844 507.957031 C 121.9375 508.296875 124.167969 508.585938 126.40625 508.816406 C 128.644531 509.050781 130.890625 509.226562 133.136719 509.351562 C 135.382812 509.472656 137.632812 509.539062 139.882812 509.554688 C 142.132812 509.566406 144.382812 509.527344 146.628906 509.429688 C 148.878906 509.332031 151.125 509.183594 153.363281 508.976562 C 155.605469 508.769531 157.839844 508.511719 160.066406 508.195312 C 162.296875 507.882812 164.515625 507.511719 166.726562 507.089844 C 168.9375 506.667969 171.136719 506.191406 173.324219 505.664062 C 175.511719 505.132812 177.683594 504.550781 179.839844 503.914062 C 182 503.277344 184.140625 502.589844 186.269531 501.851562 C 188.394531 501.109375 190.5 500.320312 192.585938 499.476562 C 194.671875 498.632812 196.738281 497.742188 198.78125 496.796875 C 200.824219 495.855469 202.84375 494.863281 204.835938 493.820312 C 206.832031 492.777344 208.800781 491.691406 210.742188 490.550781 C 212.683594 489.414062 214.597656 488.230469 216.480469 487 C 218.367188 485.769531 220.21875 484.492188 222.039062 483.171875 C 223.863281 481.851562 225.652344 480.488281 227.40625 479.078125 C 229.160156 477.671875 230.882812 476.21875 232.566406 474.730469 C 234.25 473.238281 235.898438 471.703125 237.507812 470.132812 L 400.671875 306.824219 L 400.671875 538.769531 C 400.671875 541.039062 400.726562 543.308594 400.835938 545.574219 C 400.949219 547.839844 401.113281 550.105469 401.335938 552.363281 C 401.554688 554.621094 401.832031 556.875 402.164062 559.117188 C 402.496094 561.363281 402.882812 563.601562 403.328125 565.828125 C 403.769531 568.050781 404.265625 570.265625 404.816406 572.46875 C 405.367188 574.671875 405.96875 576.855469 406.628906 579.03125 C 407.285156 581.203125 407.996094 583.355469 408.761719 585.492188 C 409.523438 587.632812 410.339844 589.75 411.207031 591.84375 C 412.074219 593.941406 412.996094 596.015625 413.964844 598.070312 C 414.933594 600.121094 415.953125 602.148438 417.023438 604.152344 C 418.089844 606.152344 419.210938 608.128906 420.375 610.074219 C 421.542969 612.023438 422.753906 613.9375 424.015625 615.828125 C 425.277344 617.714844 426.582031 619.570312 427.933594 621.394531 C 429.285156 623.214844 430.679688 625.003906 432.121094 626.761719 C 433.558594 628.515625 435.039062 630.234375 436.5625 631.914062 C 438.089844 633.597656 439.652344 635.242188 441.257812 636.847656 C 442.863281 638.453125 444.503906 640.015625 446.1875 641.542969 C 447.867188 643.066406 449.585938 644.546875 451.339844 645.988281 C 453.09375 647.429688 454.882812 648.824219 456.703125 650.179688 C 458.527344 651.53125 460.382812 652.835938 462.269531 654.097656 C 464.15625 655.359375 466.074219 656.574219 468.019531 657.742188 C 469.964844 658.910156 471.941406 660.027344 473.941406 661.097656 C 475.941406 662.167969 477.96875 663.1875 480.019531 664.160156 C 482.074219 665.128906 484.148438 666.050781 486.242188 666.917969 C 488.339844 667.785156 490.457031 668.605469 492.59375 669.367188 C 494.730469 670.132812 496.886719 670.84375 499.058594 671.503906 C 501.230469 672.164062 503.414062 672.769531 505.617188 673.320312 C 507.820312 673.871094 510.03125 674.371094 512.257812 674.8125 C 514.484375 675.253906 516.71875 675.644531 518.964844 675.976562 C 521.210938 676.308594 523.460938 676.585938 525.722656 676.808594 C 527.980469 677.03125 530.242188 677.199219 532.511719 677.3125 C 534.777344 677.421875 537.046875 677.476562 539.316406 677.476562 C 541.585938 677.476562 543.851562 677.421875 546.121094 677.3125 C 548.386719 677.199219 550.648438 677.03125 552.910156 676.808594 C 555.167969 676.585938 557.417969 676.308594 559.664062 675.976562 C 561.910156 675.644531 564.144531 675.253906 566.371094 674.8125 C 568.597656 674.371094 570.808594 673.871094 573.011719 673.320312 C 575.214844 672.769531 577.402344 672.164062 579.574219 671.503906 C 581.746094 670.84375 583.898438 670.132812 586.035156 669.367188 C 588.171875 668.605469 590.289062 667.785156 592.386719 666.917969 C 594.484375 666.050781 596.558594 665.128906 598.609375 664.160156 C 600.660156 663.1875 602.6875 662.167969 604.6875 661.097656 C 606.691406 660.027344 608.664062 658.910156 610.609375 657.742188 C 612.558594 656.574219 614.472656 655.359375 616.359375 654.097656 C 618.246094 652.835938 620.101562 651.53125 621.925781 650.179688 C 623.75 648.824219 625.535156 647.429688 627.289062 645.988281 C 629.046875 644.546875 630.761719 643.066406 632.445312 641.542969 C 634.125 640.015625 635.769531 638.453125 637.371094 636.847656 C 638.976562 635.242188 640.542969 633.597656 642.066406 631.914062 C 643.589844 630.234375 645.070312 628.515625 646.511719 626.761719 C 647.949219 625.003906 649.34375 623.214844 650.695312 621.394531 C 652.046875 619.570312 653.355469 617.714844 654.613281 615.828125 C 655.875 613.9375 657.089844 612.023438 658.253906 610.074219 C 659.421875 608.128906 660.539062 606.152344 661.605469 604.152344 C 662.675781 602.148438 663.695312 600.121094 664.664062 598.070312 C 665.636719 596.015625 666.554688 593.941406 667.421875 591.84375 C 668.289062 589.75 669.105469 587.632812 669.871094 585.492188 C 670.632812 583.355469 671.34375 581.203125 672.003906 579.03125 C 672.660156 576.855469 673.265625 574.671875 673.816406 572.46875 C 674.367188 570.265625 674.863281 568.050781 675.304688 565.828125 C 675.746094 563.601562 676.132812 561.363281 676.464844 559.117188 C 676.796875 556.875 677.074219 554.621094 677.292969 552.363281 C 677.515625 550.105469 677.683594 547.839844 677.792969 545.574219 C 677.902344 543.308594 677.957031 541.039062 677.957031 538.769531 L 677.957031 208.910156 C 677.953125 206.644531 677.894531 204.378906 677.78125 202.113281 C 677.667969 199.851562 677.5 197.589844 677.277344 195.332031 C 677.050781 193.078125 676.773438 190.828125 676.4375 188.585938 C 676.101562 186.34375 675.714844 184.109375 675.269531 181.886719 C 674.824219 179.664062 674.328125 177.453125 673.773438 175.253906 C 673.222656 173.054688 672.617188 170.871094 671.957031 168.703125 C 671.296875 166.535156 670.585938 164.382812 669.820312 162.246094 C 669.054688 160.113281 668.238281 158 667.371094 155.90625 C 666.5 153.8125 665.582031 151.738281 664.609375 149.691406 C 663.640625 147.640625 662.621094 145.617188 661.550781 143.617188 C 660.480469 141.621094 659.363281 139.648438 658.199219 137.703125 C 657.03125 135.757812 655.820312 133.84375 654.558594 131.960938 C 653.296875 130.074219 651.992188 128.222656 650.640625 126.402344 C 649.292969 124.582031 647.898438 122.796875 646.457031 121.042969 C 645.019531 119.289062 643.539062 117.574219 642.015625 115.894531 C 640.492188 114.214844 638.929688 112.574219 637.328125 110.96875 C 635.726562 109.367188 634.082031 107.804688 632.402344 106.28125 C 630.722656 104.757812 629.007812 103.277344 627.253906 101.839844 C 625.503906 100.402344 623.714844 99.007812 621.894531 97.65625 C 620.074219 96.304688 618.222656 95 616.335938 93.738281 C 614.453125 92.480469 612.539062 91.265625 610.59375 90.101562 C 608.648438 88.933594 606.679688 87.816406 604.679688 86.746094 C 602.679688 85.675781 600.65625 84.65625 598.605469 83.6875 C 596.558594 82.714844 594.488281 81.796875 592.394531 80.929688 C 590.296875 80.058594 588.183594 79.242188 586.050781 78.476562 C 583.917969 77.714844 581.765625 77 579.59375 76.339844 C 577.425781 75.683594 575.242188 75.074219 573.042969 74.523438 C 570.84375 73.972656 568.632812 73.472656 566.410156 73.027344 C 564.1875 72.585938 561.953125 72.195312 559.710938 71.859375 C 557.46875 71.527344 555.21875 71.246094 552.964844 71.023438 C 550.707031 70.796875 548.449219 70.628906 546.183594 70.515625 C 543.917969 70.402344 541.652344 70.34375 539.386719 70.34375 Z M 295.164062 61.304688 C 296.445312 60.085938 297.753906 58.902344 299.089844 57.75 C 300.429688 56.597656 301.792969 55.480469 303.1875 54.394531 C 304.578125 53.304688 305.996094 52.253906 307.4375 51.234375 C 308.882812 50.21875 310.347656 49.234375 311.839844 48.289062 C 313.328125 47.339844 314.839844 46.429688 316.375 45.554688 C 317.910156 44.679688 319.464844 43.84375 321.039062 43.042969 C 322.613281 42.246094 324.207031 41.484375 325.816406 40.761719 C 327.429688 40.039062 329.054688 39.355469 330.699219 38.710938 C 332.34375 38.066406 334.003906 37.464844 335.675781 36.898438 C 337.351562 36.335938 339.035156 35.8125 340.734375 35.332031 C 342.433594 34.847656 344.144531 34.40625 345.863281 34.007812 C 347.582031 33.605469 349.3125 33.25 351.050781 32.933594 C 352.785156 32.617188 354.53125 32.339844 356.28125 32.109375 C 358.03125 31.878906 359.789062 31.6875 361.546875 31.539062 C 363.308594 31.390625 365.070312 31.285156 366.832031 31.222656 C 368.597656 31.160156 370.363281 31.140625 372.128906 31.164062 C 373.894531 31.1875 375.660156 31.253906 377.421875 31.359375 C 379.183594 31.46875 380.945312 31.617188 382.699219 31.8125 C 384.453125 32.003906 386.203125 32.238281 387.949219 32.515625 C 389.691406 32.792969 391.429688 33.113281 393.15625 33.472656 C 394.886719 33.832031 396.605469 34.234375 398.3125 34.679688 C 400.023438 35.125 401.722656 35.609375 403.40625 36.132812 C 405.09375 36.660156 406.765625 37.226562 408.421875 37.832031 C 410.082031 38.441406 411.722656 39.085938 413.351562 39.773438 C 414.980469 40.457031 416.589844 41.183594 418.179688 41.945312 C 419.773438 42.710938 421.347656 43.511719 422.898438 44.351562 C 424.453125 45.191406 425.984375 46.066406 427.496094 46.980469 C 429.007812 47.894531 430.496094 48.84375 431.960938 49.828125 C 433.429688 50.8125 434.867188 51.832031 436.285156 52.886719 C 437.703125 53.941406 439.089844 55.03125 440.453125 56.152344 C 441.820312 57.273438 443.15625 58.429688 444.460938 59.617188 C 445.769531 60.800781 447.050781 62.019531 448.296875 63.265625 C 449.546875 64.515625 450.765625 65.792969 451.953125 67.101562 C 453.140625 68.40625 454.296875 69.742188 455.417969 71.105469 C 456.542969 72.46875 457.632812 73.855469 458.6875 75.269531 C 459.746094 76.6875 460.765625 78.125 461.753906 79.589844 C 462.738281 81.054688 463.691406 82.542969 464.605469 84.054688 C 465.519531 85.5625 466.398438 87.097656 467.238281 88.648438 C 468.078125 90.203125 468.882812 91.773438 469.648438 93.367188 C 470.414062 94.957031 471.140625 96.566406 471.828125 98.191406 C 472.515625 99.820312 473.160156 101.460938 473.769531 103.121094 C 474.378906 104.777344 474.945312 106.449219 475.472656 108.132812 C 476 109.820312 476.488281 111.515625 476.933594 113.226562 C 477.378906 114.933594 477.78125 116.652344 478.144531 118.382812 C 478.507812 120.109375 478.828125 121.84375 479.105469 123.589844 C 479.386719 125.332031 479.621094 127.082031 479.816406 128.835938 C 480.011719 130.59375 480.164062 132.351562 480.273438 134.113281 C 480.382812 135.875 480.449219 137.640625 480.472656 139.40625 C 480.496094 141.171875 480.476562 142.9375 480.417969 144.703125 C 480.355469 146.46875 480.253906 148.230469 480.105469 149.988281 C 479.960938 151.75 479.773438 153.503906 479.542969 155.253906 C 479.3125 157.007812 479.039062 158.75 478.722656 160.488281 C 478.410156 162.226562 478.050781 163.953125 477.652344 165.675781 C 477.253906 167.394531 476.816406 169.105469 476.335938 170.804688 C 475.855469 172.503906 475.332031 174.191406 474.769531 175.863281 C 474.207031 177.539062 473.605469 179.199219 472.964844 180.84375 C 472.320312 182.488281 471.640625 184.117188 470.917969 185.726562 C 470.195312 187.339844 469.4375 188.933594 468.640625 190.507812 C 467.84375 192.085938 467.007812 193.640625 466.132812 195.175781 C 465.261719 196.710938 464.351562 198.222656 463.40625 199.714844 C 462.460938 201.207031 461.476562 202.671875 460.460938 204.117188 C 459.445312 205.558594 458.394531 206.980469 457.308594 208.371094 C 456.222656 209.765625 455.105469 211.128906 453.953125 212.46875 C 452.800781 213.808594 451.617188 215.121094 450.40625 216.402344 L 340.066406 326.847656 L 184.863281 171.605469 Z M 217.019531 449.785156 C 215.738281 451 214.425781 452.183594 213.085938 453.335938 C 211.75 454.488281 210.382812 455.605469 208.988281 456.691406 C 207.597656 457.773438 206.179688 458.828125 204.734375 459.84375 C 203.289062 460.859375 201.824219 461.839844 200.332031 462.789062 C 198.839844 463.734375 197.328125 464.644531 195.792969 465.515625 C 194.257812 466.386719 192.703125 467.222656 191.125 468.023438 C 189.550781 468.820312 187.957031 469.578125 186.347656 470.300781 C 184.734375 471.019531 183.105469 471.703125 181.460938 472.34375 C 179.816406 472.988281 178.15625 473.589844 176.480469 474.152344 C 174.808594 474.714844 173.121094 475.234375 171.421875 475.71875 C 169.722656 476.199219 168.011719 476.636719 166.292969 477.035156 C 164.574219 477.433594 162.84375 477.789062 161.105469 478.105469 C 159.367188 478.421875 157.625 478.691406 155.875 478.925781 C 154.121094 479.15625 152.367188 479.34375 150.605469 479.488281 C 148.847656 479.636719 147.085938 479.738281 145.320312 479.800781 C 143.554688 479.859375 141.789062 479.878906 140.023438 479.855469 C 138.257812 479.828125 136.496094 479.761719 134.730469 479.652344 C 132.96875 479.542969 131.210938 479.390625 129.457031 479.199219 C 127.699219 479.003906 125.949219 478.765625 124.207031 478.488281 C 122.464844 478.210938 120.726562 477.890625 119 477.527344 C 117.269531 477.164062 115.550781 476.761719 113.84375 476.3125 C 112.132812 475.867188 110.4375 475.382812 108.753906 474.855469 C 107.066406 474.328125 105.394531 473.761719 103.738281 473.152344 C 102.078125 472.542969 100.4375 471.894531 98.808594 471.207031 C 97.183594 470.519531 95.574219 469.792969 93.984375 469.03125 C 92.390625 468.265625 90.820312 467.460938 89.265625 466.621094 C 87.714844 465.78125 86.183594 464.902344 84.671875 463.988281 C 83.160156 463.074219 81.671875 462.121094 80.210938 461.136719 C 78.746094 460.148438 77.304688 459.128906 75.890625 458.070312 C 74.472656 457.015625 73.085938 455.925781 71.722656 454.800781 C 70.359375 453.679688 69.023438 452.523438 67.71875 451.335938 C 66.410156 450.148438 65.132812 448.929688 63.886719 447.679688 C 62.636719 446.429688 61.421875 445.152344 60.234375 443.84375 C 59.046875 442.535156 57.894531 441.199219 56.769531 439.835938 C 55.648438 438.472656 54.5625 437.082031 53.507812 435.667969 C 52.453125 434.25 51.429688 432.808594 50.445312 431.34375 C 49.460938 429.878906 48.511719 428.390625 47.597656 426.878906 C 46.683594 425.367188 45.808594 423.835938 44.96875 422.28125 C 44.128906 420.726562 43.328125 419.15625 42.5625 417.5625 C 41.800781 415.96875 41.074219 414.359375 40.390625 412.734375 C 39.703125 411.105469 39.058594 409.464844 38.453125 407.804688 C 37.84375 406.148438 37.277344 404.472656 36.753906 402.789062 C 36.226562 401.101562 35.742188 399.40625 35.296875 397.695312 C 34.855469 395.988281 34.453125 394.269531 34.089844 392.539062 C 33.730469 390.8125 33.410156 389.074219 33.132812 387.332031 C 32.855469 385.585938 32.621094 383.835938 32.429688 382.082031 C 32.234375 380.324219 32.085938 378.566406 31.976562 376.804688 C 31.871094 375.042969 31.804688 373.277344 31.78125 371.511719 C 31.757812 369.746094 31.78125 367.980469 31.84375 366.214844 C 31.90625 364.449219 32.011719 362.6875 32.15625 360.929688 C 32.304688 359.167969 32.496094 357.414062 32.726562 355.664062 C 32.960938 353.914062 33.234375 352.167969 33.550781 350.433594 C 33.867188 348.695312 34.226562 346.964844 34.625 345.246094 C 35.023438 343.527344 35.464844 341.816406 35.949219 340.117188 C 36.429688 338.417969 36.953125 336.734375 37.519531 335.058594 C 38.082031 333.386719 38.6875 331.726562 39.328125 330.082031 C 39.972656 328.4375 40.65625 326.808594 41.378906 325.199219 C 42.101562 323.585938 42.863281 321.996094 43.660156 320.421875 C 44.460938 318.84375 45.296875 317.292969 46.171875 315.757812 C 47.046875 314.222656 47.957031 312.710938 48.90625 311.21875 C 49.851562 309.730469 50.835938 308.261719 51.855469 306.820312 C 52.871094 305.378906 53.925781 303.960938 55.011719 302.566406 C 56.097656 301.175781 57.214844 299.8125 58.371094 298.472656 C 59.523438 297.136719 60.707031 295.824219 61.921875 294.542969 L 164.480469 191.984375 L 319.6875 347.191406 Z M 616.738281 616.371094 C 614.832031 618.273438 612.859375 620.101562 610.816406 621.855469 C 608.777344 623.613281 606.671875 625.289062 604.507812 626.890625 C 602.34375 628.492188 600.125 630.011719 597.847656 631.449219 C 595.570312 632.886719 593.246094 634.238281 590.871094 635.503906 C 588.492188 636.769531 586.074219 637.945312 583.613281 639.035156 C 581.148438 640.125 578.652344 641.121094 576.117188 642.023438 C 573.578125 642.929688 571.015625 643.738281 568.417969 644.453125 C 565.824219 645.167969 563.207031 645.789062 560.566406 646.3125 C 557.925781 646.835938 555.269531 647.261719 552.597656 647.585938 C 549.921875 647.914062 547.242188 648.144531 544.554688 648.273438 C 541.863281 648.40625 539.175781 648.4375 536.484375 648.367188 C 533.792969 648.300781 531.109375 648.132812 528.429688 647.867188 C 525.75 647.605469 523.082031 647.242188 520.433594 646.777344 C 517.78125 646.316406 515.148438 645.757812 512.535156 645.105469 C 509.925781 644.449219 507.339844 643.699219 504.785156 642.855469 C 502.230469 642.007812 499.707031 641.070312 497.222656 640.039062 C 494.734375 639.007812 492.289062 637.890625 489.882812 636.679688 C 487.480469 635.46875 485.121094 634.171875 482.8125 632.785156 C 480.503906 631.402344 478.25 629.933594 476.046875 628.386719 C 473.847656 626.835938 471.707031 625.207031 469.625 623.5 C 467.542969 621.792969 465.527344 620.011719 463.578125 618.152344 C 461.628906 616.296875 459.746094 614.375 457.9375 612.378906 C 456.128906 610.386719 454.398438 608.328125 452.742188 606.207031 C 451.082031 604.082031 449.507812 601.902344 448.011719 599.667969 C 446.511719 597.429688 445.101562 595.140625 443.773438 592.796875 C 442.445312 590.457031 441.203125 588.070312 440.050781 585.636719 C 438.898438 583.203125 437.835938 580.730469 436.867188 578.21875 C 435.894531 575.710938 435.019531 573.164062 434.234375 570.589844 C 433.449219 568.015625 432.761719 565.414062 432.171875 562.789062 C 431.578125 560.160156 431.082031 557.515625 430.6875 554.855469 C 430.289062 552.191406 429.988281 549.519531 429.789062 546.832031 C 429.585938 544.148438 429.484375 541.460938 429.480469 538.769531 L 429.480469 393.71875 L 649.148438 393.71875 L 649.148438 538.769531 C 649.15625 542.363281 648.988281 545.953125 648.644531 549.53125 C 648.296875 553.113281 647.777344 556.664062 647.082031 560.191406 C 646.382812 563.71875 645.515625 567.207031 644.472656 570.648438 C 643.429688 574.089844 642.222656 577.46875 640.84375 580.792969 C 639.46875 584.113281 637.929688 587.359375 636.234375 590.53125 C 634.535156 593.699219 632.683594 596.777344 630.683594 599.765625 C 628.679688 602.753906 626.535156 605.632812 624.246094 608.40625 C 621.960938 611.183594 619.539062 613.835938 616.988281 616.371094 Z M 649.148438 364.910156 L 429.480469 364.910156 L 429.480469 278.015625 L 470.605469 236.890625 C 473.824219 233.691406 476.878906 230.335938 479.765625 226.835938 C 482.65625 223.332031 485.363281 219.691406 487.890625 215.921875 C 490.417969 212.148438 492.753906 208.261719 494.894531 204.261719 C 497.039062 200.257812 498.976562 196.160156 500.714844 191.964844 C 502.453125 187.769531 503.980469 183.5 505.292969 179.15625 C 506.609375 174.808594 507.707031 170.410156 508.585938 165.957031 C 509.464844 161.5 510.121094 157.015625 510.558594 152.496094 C 510.992188 147.976562 511.203125 143.445312 511.191406 138.90625 C 511.191406 127.101562 509.726562 115.484375 506.796875 104.046875 C 517.351562 100.765625 528.15625 99.132812 539.207031 99.152344 C 541.003906 99.148438 542.800781 99.191406 544.597656 99.28125 C 546.390625 99.367188 548.183594 99.496094 549.972656 99.671875 C 551.761719 99.847656 553.546875 100.066406 555.324219 100.328125 C 557.105469 100.589844 558.875 100.898438 560.636719 101.246094 C 562.402344 101.597656 564.15625 101.988281 565.898438 102.425781 C 567.644531 102.859375 569.375 103.339844 571.097656 103.859375 C 572.816406 104.378906 574.523438 104.941406 576.21875 105.546875 C 577.910156 106.152344 579.585938 106.796875 581.25 107.484375 C 582.910156 108.167969 584.554688 108.898438 586.179688 109.664062 C 587.804688 110.429688 589.410156 111.238281 590.996094 112.085938 C 592.582031 112.929688 594.148438 113.816406 595.691406 114.738281 C 597.234375 115.660156 598.75 116.621094 600.246094 117.621094 C 601.742188 118.617188 603.214844 119.652344 604.65625 120.71875 C 606.101562 121.789062 607.519531 122.894531 608.910156 124.035156 C 610.300781 125.171875 611.664062 126.347656 612.996094 127.550781 C 614.328125 128.757812 615.632812 129.996094 616.902344 131.265625 C 618.175781 132.535156 619.417969 133.835938 620.625 135.167969 C 621.832031 136.5 623.007812 137.859375 624.148438 139.25 C 625.292969 140.636719 626.398438 142.050781 627.46875 143.496094 C 628.542969 144.9375 629.578125 146.40625 630.578125 147.902344 C 631.578125 149.394531 632.542969 150.914062 633.46875 152.453125 C 634.394531 153.996094 635.28125 155.558594 636.128906 157.140625 C 636.976562 158.726562 637.785156 160.332031 638.558594 161.957031 C 639.328125 163.582031 640.058594 165.222656 640.746094 166.882812 C 641.4375 168.542969 642.085938 170.21875 642.691406 171.910156 C 643.296875 173.601562 643.863281 175.308594 644.386719 177.027344 C 644.910156 178.75 645.390625 180.480469 645.828125 182.222656 C 646.269531 183.96875 646.664062 185.71875 647.015625 187.484375 C 647.367188 189.246094 647.675781 191.015625 647.941406 192.792969 C 648.207031 194.574219 648.429688 196.355469 648.609375 198.144531 C 648.785156 199.933594 648.917969 201.726562 649.011719 203.519531 C 649.101562 205.316406 649.144531 207.113281 649.148438 208.910156 Z M 649.148438 364.910156" fill="#ffdb70"/></g></g></g></svg>