<svg version="1.0" preserveAspectRatio="xMidYMid meet" viewBox="338.5376827896513 30.779999734 761.3048368953881 754.9199934760001" zoomAndPan="magnify" xmlns:xlink="http://www.w3.org/1999/xlink" xmlns="http://www.w3.org/2000/svg" style="max-height: 500px" width="761.3048368953881" height="754.9199934760001"><defs><clipPath id="ef1e2041bc"><path clip-rule="nonzero" d="M 0.746094 0.398438 L 759.238281 0.398438 L 759.238281 690.398438 L 0.746094 690.398438 Z M 0.746094 0.398438"/></clipPath><clipPath id="16e127d38a"><rect height="691" y="0" width="760" x="0"/></clipPath></defs><g transform="matrix(1, 0, 0, 1, 339, 62)"><g clip-path="url(#16e127d38a)"><g clip-path="url(#ef1e2041bc)"><path fill-rule="nonzero" fill-opacity="1" d="M 569.375 466.152344 C 569.375 504.4375 538.675781 535.136719 500.386719 535.136719 C 462.097656 535.136719 431.398438 504.4375 431.398438 466.152344 C 431.398438 427.863281 462.441406 397.164062 500.386719 397.164062 C 538.328125 397.164062 569.375 428.207031 569.375 466.152344 M 258.929688 397.164062 C 220.988281 397.164062 189.945312 428.207031 189.945312 466.152344 C 189.945312 504.09375 220.988281 535.136719 258.929688 535.136719 C 296.875 535.136719 327.917969 504.4375 327.917969 466.152344 C 327.917969 427.863281 297.21875 397.164062 258.929688 397.164062 M 759.089844 448.902344 L 759.089844 552.386719 C 759.089844 571.355469 743.566406 586.878906 724.59375 586.878906 L 690.101562 586.878906 L 690.101562 621.371094 C 690.101562 659.660156 659.402344 690.359375 621.113281 690.359375 L 138.203125 690.359375 C 100.261719 690.359375 69.214844 659.660156 69.214844 621.371094 L 69.214844 586.878906 L 34.722656 586.878906 C 15.75 586.878906 0.226562 571.355469 0.226562 552.386719 L 0.226562 448.902344 C 0.226562 429.933594 15.75 414.410156 34.722656 414.410156 L 69.214844 414.410156 C 69.214844 280.921875 177.179688 172.953125 310.671875 172.953125 L 345.164062 172.953125 L 345.164062 129.148438 C 324.46875 117.421875 310.671875 95 310.671875 69.472656 C 310.671875 31.53125 341.714844 0.488281 379.660156 0.488281 C 417.601562 0.488281 448.644531 31.53125 448.644531 69.472656 C 448.644531 95 434.847656 117.421875 414.152344 129.148438 L 414.152344 172.953125 L 448.644531 172.953125 C 582.136719 172.953125 690.101562 280.921875 690.101562 414.410156 L 724.59375 414.410156 C 743.566406 414.410156 759.089844 429.933594 759.089844 448.902344 M 690.101562 483.398438 L 621.113281 483.398438 L 621.113281 414.410156 C 621.113281 319.207031 543.847656 241.941406 448.644531 241.941406 L 310.671875 241.941406 C 215.46875 241.941406 138.203125 319.207031 138.203125 414.410156 L 138.203125 483.398438 L 69.214844 483.398438 L 69.214844 517.890625 L 138.203125 517.890625 L 138.203125 621.371094 L 621.113281 621.371094 L 621.113281 517.890625 L 690.101562 517.890625 Z M 690.101562 483.398438" fill="#ffda6b"/></g></g></g></svg>