<svg version="1.0" preserveAspectRatio="xMidYMid meet" viewBox="338.5376827896513 22.679999804 762.9246344206974 764.639993392" zoomAndPan="magnify" xmlns:xlink="http://www.w3.org/1999/xlink" xmlns="http://www.w3.org/2000/svg" style="max-height: 500px" width="762.9246344206974" height="764.639993392"><defs><clipPath id="b5ca0f59fb"><path clip-rule="nonzero" d="M 0.433594 0.367188 L 759.609375 0.367188 L 759.609375 759.539062 L 0.433594 759.539062 Z M 0.433594 0.367188"/></clipPath><clipPath id="3019b254bf"><rect height="760" y="0" width="760" x="0"/></clipPath></defs><g transform="matrix(1, 0, 0, 1, 340, 25)"><g clip-path="url(#3019b254bf)"><g clip-path="url(#b5ca0f59fb)"><path fill-rule="nonzero" fill-opacity="1" d="M 228.136719 607.570312 C 186.203125 607.570312 152.617188 641.535156 152.617188 683.472656 C 152.617188 725.40625 186.203125 759.371094 228.136719 759.371094 C 270.070312 759.371094 304.039062 725.40625 304.039062 683.472656 C 304.039062 641.535156 270.070312 607.570312 228.136719 607.570312 Z M 0.433594 0.367188 L 0.433594 76.265625 L 76.335938 76.265625 L 212.765625 364.121094 L 161.535156 457.097656 C 155.652344 468.105469 152.234375 480.4375 152.234375 493.71875 C 152.234375 535.65625 186.203125 569.621094 228.136719 569.621094 L 683.542969 569.621094 L 683.542969 493.71875 L 244.265625 493.71875 C 238.953125 493.71875 234.777344 489.546875 234.777344 484.234375 C 234.777344 482.523438 235.15625 481.007812 235.917969 479.679688 L 269.882812 417.820312 L 552.613281 417.820312 C 581.074219 417.820312 605.933594 402.070312 619.027344 378.730469 L 754.699219 132.433594 C 757.734375 127.121094 759.441406 120.859375 759.441406 114.21875 C 759.441406 93.15625 742.363281 76.265625 721.492188 76.265625 L 160.394531 76.265625 L 124.34375 0.367188 Z M 607.640625 607.570312 C 565.707031 607.570312 532.117188 641.535156 532.117188 683.472656 C 532.117188 725.40625 565.707031 759.371094 607.640625 759.371094 C 649.574219 759.371094 683.542969 725.40625 683.542969 683.472656 C 683.542969 641.535156 649.574219 607.570312 607.640625 607.570312 Z M 607.640625 607.570312" fill="#ffda6b"/></g></g></g></svg>